<?xml version="1.0" encoding="UTF-8"?>
<svg width="813px" height="484px" viewBox="0 0 813 484" version="1.1" xmlns="http://www.w3.org/2000/svg" xmlns:xlink="http://www.w3.org/1999/xlink">
    <!-- Generator: Sketch 52.3 (67297) - http://www.bohemiancoding.com/sketch -->
    <title>Artboard</title>
    <desc>Created with Sketch.</desc>
    <g id="Artboard" stroke="none" stroke-width="1" fill="none" fill-rule="evenodd">
        <g id="sheep-copy-4" transform="translate(388.000000, 63.000000)">
            <path d="M36.5664682,152.96871 L38.8782757,152.97501 C41.3539847,152.981756 43.3592627,154.987045 43.365996,157.462754 L43.4648238,193.800043 C43.4715831,196.285315 41.4623514,198.305506 38.9770792,198.312265 C38.968912,198.312288 38.9607447,198.312288 38.9525774,198.312265 L36.6407699,198.305965 C34.1650609,198.299219 32.1597829,196.29393 32.1530496,193.818221 L32.0542218,157.480932 C32.0474625,154.99566 34.0566942,152.975469 36.5419664,152.96871 C36.5501336,152.968687 36.5583009,152.968687 36.5664682,152.96871 Z" id="Rectangle-Copy-3" fill="#555555" transform="translate(37.759523, 175.640488) scale(-1, 1) rotate(-55.000000) translate(-37.759523, -175.640488) "></path>
            <path d="M175.363094,127.399311 L177.692933,127.405909 C180.16825,127.41292 182.173152,129.417814 182.180171,131.893131 L182.334343,186.264342 C182.34139,188.749613 180.332392,190.770036 177.847121,190.777083 C177.838619,190.777107 177.830118,190.777107 177.821616,190.777083 L175.491777,190.770485 C173.01646,190.763475 171.011558,188.75858 171.00454,186.283263 L170.850367,131.912053 C170.84332,129.426781 172.852318,127.406358 175.337589,127.399311 C175.346091,127.399287 175.354592,127.399287 175.363094,127.399311 Z" id="Rectangle" fill="#555555" transform="translate(176.592355, 159.088197) rotate(-39.000000) translate(-176.592355, -159.088197) "></path>
            <path d="M109.876426,185.715693 C160.089125,185.788248 200.649979,154.422183 200.593918,115.818464 C200.54246,80.3844425 165.825293,61.8339355 109.855081,61.7530614 C53.7952765,61.6720577 18.8976122,80.1546879 18.9490132,115.549478 C19.0050788,154.156323 59.6615923,185.643135 109.876426,185.715693 Z" id="Oval" stroke="#555555" stroke-width="2.25" fill="#555555" transform="translate(109.771466, 123.734312) rotate(-15.000000) translate(-109.771466, -123.734312) "></path>
            <path d="M156.04443,152.013619 L158.374269,152.020217 C160.849586,152.027228 162.854488,154.032122 162.861507,156.507439 L162.964338,192.772558 C162.971385,195.25783 160.962387,197.278253 158.477116,197.2853 C158.468615,197.285324 158.460113,197.285324 158.451612,197.2853 L156.121772,197.278702 C153.646455,197.271691 151.641554,195.266797 151.634535,192.79148 L151.531703,156.526361 C151.524656,154.041089 153.533654,152.020666 156.018925,152.013619 C156.027427,152.013595 156.035928,152.013595 156.04443,152.013619 Z" id="Rectangle-Copy" fill="#555555" transform="translate(157.248021, 174.649459) rotate(-39.000000) translate(-157.248021, -174.649459) "></path>
            <path d="M56.1122264,165.562006 L58.4420658,165.568604 C60.917383,165.575615 62.9222843,167.580509 62.9293032,170.055826 L63.0321347,206.320945 C63.0391818,208.806217 61.0301841,210.82664 58.5449127,210.833687 C58.5364112,210.833711 58.5279097,210.833711 58.5194082,210.833687 L56.1895688,210.827089 C53.7142516,210.820078 51.7093503,208.815184 51.7023314,206.339867 L51.5994999,170.074748 C51.5924528,167.589476 53.6014505,165.569053 56.0867219,165.562006 C56.0952234,165.561982 56.1037249,165.561982 56.1122264,165.562006 Z" id="Rectangle-Copy-2" fill="#555555" transform="translate(57.315817, 188.197846) scale(-1, 1) rotate(-39.000000) translate(-57.315817, -188.197846) "></path>
            <g id="sheephead" transform="translate(97.661017, 0.000000)">
                <ellipse id="Oval" fill="#555555" transform="translate(109.114344, 65.714182) rotate(-27.000000) translate(-109.114344, -65.714182) " cx="109.114344" cy="65.7141824" rx="38.5644075" ry="54.2585337"></ellipse>
                <path d="M99.9404501,17.6761477 C99.2277417,17.9276304 98.4604579,18.0645161 97.6610169,18.0645161 C96.8646585,18.0645161 96.1002098,17.928684 95.3898305,17.6790516 C94.6794513,17.928684 93.9150025,18.0645161 93.1186441,18.0645161 C92.0020099,18.0645161 90.9481131,17.7974572 90.0180444,17.3240769 C88.7876898,19.9787876 86.2999986,21.938761 83.3138418,22.4495106 C85.1712006,24.8615808 86.3050847,28.0792604 86.3050847,31.6129032 C86.3050847,39.0954708 81.2208607,45.1612903 74.9491525,45.1612903 C74.1699212,45.1612903 73.4090209,45.0676526 72.6739256,44.889294 C72.676613,44.9796327 72.6779661,45.0703044 72.6779661,45.1612903 C72.6779661,50.1496687 68.6105869,54.1935484 63.5932203,54.1935484 C58.5758538,54.1935484 54.5084746,50.1496687 54.5084746,45.1612903 C54.5084746,40.1729119 58.5758538,36.1290323 63.5932203,36.1290323 C63.8127935,36.1290323 64.0305472,36.136777 64.2462203,36.1520066 C64.1465292,35.8174311 64.057547,35.4768004 63.9797659,35.1307014 C61.052584,33.630937 59.0508475,30.5962703 59.0508475,27.0967742 C59.0508475,25.4516064 59.4932486,23.90917 60.2662247,22.5806452 C59.4932486,21.2521203 59.0508475,19.7096839 59.0508475,18.0645161 C59.0508475,13.0761377 63.1182267,9.03225806 68.1355932,9.03225806 C70.0055009,9.03225806 71.7434594,9.59393539 73.1880983,10.5568518 C74.4297674,7.03871088 77.7999375,4.51612903 81.7627119,4.51612903 C81.8916504,4.51612903 82.0199616,4.51879965 82.1475925,4.52408829 C83.0806856,1.88885194 85.6066141,0 88.5762712,0 C91.6509305,0 94.2499273,2.02478679 95.0979029,4.80637004 C95.1961696,4.83598183 95.2934972,4.86774131 95.3898305,4.90159353 C96.1002098,4.65196114 96.8646585,4.51612903 97.6610169,4.51612903 C101.080114,4.51612903 103.911007,7.01997805 104.399915,10.2840266 C105.752894,9.48869029 107.331309,9.03225806 109.016949,9.03225806 C114.034316,9.03225806 118.101695,13.0761377 118.101695,18.0645161 C118.101695,23.0528945 114.034316,27.0967742 109.016949,27.0967742 C103.999583,27.0967742 99.9322034,23.0528945 99.9322034,18.0645161 C99.9322034,17.934399 99.9349707,17.8049246 99.9404501,17.6761477 Z" id="headtuft" fill="#555555"></path>
                <ellipse id="Oval" fill="#555555" transform="translate(52.838903, 80.466243) rotate(27.000000) translate(-52.838903, -80.466243) " cx="52.838903" cy="80.4662428" rx="11.342695" ry="33.9115462"></ellipse>
                <ellipse id="Oval-Copy" fill="#555555" transform="translate(35.684365, 40.666417) rotate(78.000000) translate(-35.684365, -40.666417) " cx="35.6843646" cy="40.6664173" rx="11.2932312" ry="34.0592909"></ellipse>
                <g id="eyes" transform="translate(95.389831, 40.645161)">
                    <ellipse id="Oval" fill="#FFFFFF" cx="9.08474576" cy="18.0645161" rx="9.08474576" ry="9.03225806"></ellipse>
                    <ellipse id="Oval-Copy-11" fill="#555555" cx="11.3559322" cy="15.8064516" rx="6.81355932" ry="6.77419355"></ellipse>
                    <ellipse id="Oval-Copy-10" fill="#FFFFFF" cx="31.7966102" cy="9.03225806" rx="9.08474576" ry="9.03225806"></ellipse>
                    <ellipse id="Oval-Copy-12" fill="#555555" cx="34.0677966" cy="6.77419355" rx="6.81355932" ry="6.77419355"></ellipse>
                </g>
            </g>
            <path d="M9.24802674,115.266273 C9.14113123,114.869091 9.08474576,114.45613 9.08474576,114.032258 C9.08474576,110.914522 12.1352802,108.387097 15.8983051,108.387097 C19.66133,108.387097 22.7118644,110.914522 22.7118644,114.032258 C22.7118644,115.02912 22.3999992,115.965632 21.8526946,116.778475 C23.7553892,118.222452 24.9830508,120.500945 24.9830508,123.064516 C24.9830508,127.429347 21.424094,130.967742 17.0338983,130.967742 C15.3449894,130.967742 13.779099,130.44408 12.4915254,129.551157 C11.2039518,130.44408 9.63806144,130.967742 7.94915254,130.967742 C3.55895682,130.967742 0,127.429347 0,123.064516 C0,118.699685 3.55895682,115.16129 7.94915254,115.16129 C8.39147862,115.16129 8.82536662,115.197209 9.24802674,115.266273 Z" id="tail" fill="#555555"></path>
            <path d="M165.386246,50.5545966 C170.875926,55.0284113 164.879399,75.7566062 160.967892,84.3366223 C152.06086,103.874482 137.306084,111.177312 135.367536,110.816789 C131.182749,110.038519 129.286934,102.863122 133.143476,90.5334235 C135.714504,82.3136244 142.046737,71.2002175 152.140176,57.1932027" id="Path-3" stroke="#FFFFFF" stroke-width="2.25" stroke-linecap="round"></path>
        </g>
        <g id="sheep-copy-6" transform="translate(715.000000, 63.000000)" fill="#555555">
            <path d="M36.5664682,152.96871 L38.8782757,152.97501 C41.3539847,152.981756 43.3592627,154.987045 43.365996,157.462754 L43.4648238,193.800043 C43.4715831,196.285315 41.4623514,198.305506 38.9770792,198.312265 C38.968912,198.312288 38.9607447,198.312288 38.9525774,198.312265 L36.6407699,198.305965 C34.1650609,198.299219 32.1597829,196.29393 32.1530496,193.818221 L32.0542218,157.480932 C32.0474625,154.99566 34.0566942,152.975469 36.5419664,152.96871 C36.5501336,152.968687 36.5583009,152.968687 36.5664682,152.96871 Z" id="Rectangle-Copy-3" transform="translate(37.759523, 175.640488) scale(-1, 1) rotate(-55.000000) translate(-37.759523, -175.640488) "></path>
            <path d="M109.876426,185.715693 C160.089125,185.788248 200.649979,154.422183 200.593918,115.818464 C200.54246,80.3844425 165.825293,61.8339355 109.855081,61.7530614 C53.7952765,61.6720577 18.8976122,80.1546879 18.9490132,115.549478 C19.0050788,154.156323 59.6615923,185.643135 109.876426,185.715693 Z" id="Oval" stroke="#555555" stroke-width="2.25" transform="translate(109.771466, 123.734312) rotate(-15.000000) translate(-109.771466, -123.734312) "></path>
            <path d="M56.1122264,165.562006 L58.4420658,165.568604 C60.917383,165.575615 62.9222843,167.580509 62.9293032,170.055826 L63.0321347,206.320945 C63.0391818,208.806217 61.0301841,210.82664 58.5449127,210.833687 C58.5364112,210.833711 58.5279097,210.833711 58.5194082,210.833687 L56.1895688,210.827089 C53.7142516,210.820078 51.7093503,208.815184 51.7023314,206.339867 L51.5994999,170.074748 C51.5924528,167.589476 53.6014505,165.569053 56.0867219,165.562006 C56.0952234,165.561982 56.1037249,165.561982 56.1122264,165.562006 Z" id="Rectangle-Copy-2" transform="translate(57.315817, 188.197846) scale(-1, 1) rotate(-39.000000) translate(-57.315817, -188.197846) "></path>
            <g id="sheephead" transform="translate(97.661017, 0.000000)">
                <ellipse id="Oval-Copy" transform="translate(35.684365, 40.666417) rotate(78.000000) translate(-35.684365, -40.666417) " cx="35.6843646" cy="40.6664173" rx="11.2932312" ry="34.0592909"></ellipse>
            </g>
            <path d="M9.24802674,115.266273 C9.14113123,114.869091 9.08474576,114.45613 9.08474576,114.032258 C9.08474576,110.914522 12.1352802,108.387097 15.8983051,108.387097 C19.66133,108.387097 22.7118644,110.914522 22.7118644,114.032258 C22.7118644,115.02912 22.3999992,115.965632 21.8526946,116.778475 C23.7553892,118.222452 24.9830508,120.500945 24.9830508,123.064516 C24.9830508,127.429347 21.424094,130.967742 17.0338983,130.967742 C15.3449894,130.967742 13.779099,130.44408 12.4915254,129.551157 C11.2039518,130.44408 9.63806144,130.967742 7.94915254,130.967742 C3.55895682,130.967742 0,127.429347 0,123.064516 C0,118.699685 3.55895682,115.16129 7.94915254,115.16129 C8.39147862,115.16129 8.82536662,115.197209 9.24802674,115.266273 Z" id="tail"></path>
        </g>
        <g id="sheep-copy-5" transform="translate(72.000000, 63.000000)">
            <path d="M36.5664682,152.96871 L38.8782757,152.97501 C41.3539847,152.981756 43.3592627,154.987045 43.365996,157.462754 L43.4648238,193.800043 C43.4715831,196.285315 41.4623514,198.305506 38.9770792,198.312265 C38.968912,198.312288 38.9607447,198.312288 38.9525774,198.312265 L36.6407699,198.305965 C34.1650609,198.299219 32.1597829,196.29393 32.1530496,193.818221 L32.0542218,157.480932 C32.0474625,154.99566 34.0566942,152.975469 36.5419664,152.96871 C36.5501336,152.968687 36.5583009,152.968687 36.5664682,152.96871 Z" id="Rectangle-Copy-3" fill="#555555" transform="translate(37.759523, 175.640488) scale(-1, 1) rotate(-55.000000) translate(-37.759523, -175.640488) "></path>
            <path d="M175.363094,127.399311 L177.692933,127.405909 C180.16825,127.41292 182.173152,129.417814 182.180171,131.893131 L182.334343,186.264342 C182.34139,188.749613 180.332392,190.770036 177.847121,190.777083 C177.838619,190.777107 177.830118,190.777107 177.821616,190.777083 L175.491777,190.770485 C173.01646,190.763475 171.011558,188.75858 171.00454,186.283263 L170.850367,131.912053 C170.84332,129.426781 172.852318,127.406358 175.337589,127.399311 C175.346091,127.399287 175.354592,127.399287 175.363094,127.399311 Z" id="Rectangle" fill="#555555" transform="translate(176.592355, 159.088197) rotate(-39.000000) translate(-176.592355, -159.088197) "></path>
            <path d="M109.876426,185.715693 C160.089125,185.788248 200.649979,154.422183 200.593918,115.818464 C200.54246,80.3844425 165.825293,61.8339355 109.855081,61.7530614 C53.7952765,61.6720577 18.8976122,80.1546879 18.9490132,115.549478 C19.0050788,154.156323 59.6615923,185.643135 109.876426,185.715693 Z" id="Oval" stroke="#555555" stroke-width="2.25" fill="#555555" transform="translate(109.771466, 123.734312) rotate(-15.000000) translate(-109.771466, -123.734312) "></path>
            <path d="M156.04443,152.013619 L158.374269,152.020217 C160.849586,152.027228 162.854488,154.032122 162.861507,156.507439 L162.964338,192.772558 C162.971385,195.25783 160.962387,197.278253 158.477116,197.2853 C158.468615,197.285324 158.460113,197.285324 158.451612,197.2853 L156.121772,197.278702 C153.646455,197.271691 151.641554,195.266797 151.634535,192.79148 L151.531703,156.526361 C151.524656,154.041089 153.533654,152.020666 156.018925,152.013619 C156.027427,152.013595 156.035928,152.013595 156.04443,152.013619 Z" id="Rectangle-Copy" fill="#555555" transform="translate(157.248021, 174.649459) rotate(-39.000000) translate(-157.248021, -174.649459) "></path>
            <path d="M56.1122264,165.562006 L58.4420658,165.568604 C60.917383,165.575615 62.9222843,167.580509 62.9293032,170.055826 L63.0321347,206.320945 C63.0391818,208.806217 61.0301841,210.82664 58.5449127,210.833687 C58.5364112,210.833711 58.5279097,210.833711 58.5194082,210.833687 L56.1895688,210.827089 C53.7142516,210.820078 51.7093503,208.815184 51.7023314,206.339867 L51.5994999,170.074748 C51.5924528,167.589476 53.6014505,165.569053 56.0867219,165.562006 C56.0952234,165.561982 56.1037249,165.561982 56.1122264,165.562006 Z" id="Rectangle-Copy-2" fill="#555555" transform="translate(57.315817, 188.197846) scale(-1, 1) rotate(-39.000000) translate(-57.315817, -188.197846) "></path>
            <g id="sheephead" transform="translate(97.661017, 0.000000)">
                <ellipse id="Oval" fill="#555555" transform="translate(109.114344, 65.714182) rotate(-27.000000) translate(-109.114344, -65.714182) " cx="109.114344" cy="65.7141824" rx="38.5644075" ry="54.2585337"></ellipse>
                <path d="M99.9404501,17.6761477 C99.2277417,17.9276304 98.4604579,18.0645161 97.6610169,18.0645161 C96.8646585,18.0645161 96.1002098,17.928684 95.3898305,17.6790516 C94.6794513,17.928684 93.9150025,18.0645161 93.1186441,18.0645161 C92.0020099,18.0645161 90.9481131,17.7974572 90.0180444,17.3240769 C88.7876898,19.9787876 86.2999986,21.938761 83.3138418,22.4495106 C85.1712006,24.8615808 86.3050847,28.0792604 86.3050847,31.6129032 C86.3050847,39.0954708 81.2208607,45.1612903 74.9491525,45.1612903 C74.1699212,45.1612903 73.4090209,45.0676526 72.6739256,44.889294 C72.676613,44.9796327 72.6779661,45.0703044 72.6779661,45.1612903 C72.6779661,50.1496687 68.6105869,54.1935484 63.5932203,54.1935484 C58.5758538,54.1935484 54.5084746,50.1496687 54.5084746,45.1612903 C54.5084746,40.1729119 58.5758538,36.1290323 63.5932203,36.1290323 C63.8127935,36.1290323 64.0305472,36.136777 64.2462203,36.1520066 C64.1465292,35.8174311 64.057547,35.4768004 63.9797659,35.1307014 C61.052584,33.630937 59.0508475,30.5962703 59.0508475,27.0967742 C59.0508475,25.4516064 59.4932486,23.90917 60.2662247,22.5806452 C59.4932486,21.2521203 59.0508475,19.7096839 59.0508475,18.0645161 C59.0508475,13.0761377 63.1182267,9.03225806 68.1355932,9.03225806 C70.0055009,9.03225806 71.7434594,9.59393539 73.1880983,10.5568518 C74.4297674,7.03871088 77.7999375,4.51612903 81.7627119,4.51612903 C81.8916504,4.51612903 82.0199616,4.51879965 82.1475925,4.52408829 C83.0806856,1.88885194 85.6066141,0 88.5762712,0 C91.6509305,0 94.2499273,2.02478679 95.0979029,4.80637004 C95.1961696,4.83598183 95.2934972,4.86774131 95.3898305,4.90159353 C96.1002098,4.65196114 96.8646585,4.51612903 97.6610169,4.51612903 C101.080114,4.51612903 103.911007,7.01997805 104.399915,10.2840266 C105.752894,9.48869029 107.331309,9.03225806 109.016949,9.03225806 C114.034316,9.03225806 118.101695,13.0761377 118.101695,18.0645161 C118.101695,23.0528945 114.034316,27.0967742 109.016949,27.0967742 C103.999583,27.0967742 99.9322034,23.0528945 99.9322034,18.0645161 C99.9322034,17.934399 99.9349707,17.8049246 99.9404501,17.6761477 Z" id="headtuft" fill="#555555"></path>
                <ellipse id="Oval" fill="#555555" transform="translate(52.838903, 80.466243) rotate(27.000000) translate(-52.838903, -80.466243) " cx="52.838903" cy="80.4662428" rx="11.342695" ry="33.9115462"></ellipse>
                <ellipse id="Oval-Copy" fill="#555555" transform="translate(35.684365, 40.666417) rotate(78.000000) translate(-35.684365, -40.666417) " cx="35.6843646" cy="40.6664173" rx="11.2932312" ry="34.0592909"></ellipse>
                <g id="eyes" transform="translate(95.389831, 40.645161)">
                    <ellipse id="Oval" fill="#FFFFFF" cx="9.08474576" cy="18.0645161" rx="9.08474576" ry="9.03225806"></ellipse>
                    <ellipse id="Oval-Copy-11" fill="#555555" cx="11.3559322" cy="15.8064516" rx="6.81355932" ry="6.77419355"></ellipse>
                    <ellipse id="Oval-Copy-10" fill="#FFFFFF" cx="31.7966102" cy="9.03225806" rx="9.08474576" ry="9.03225806"></ellipse>
                    <ellipse id="Oval-Copy-12" fill="#555555" cx="34.0677966" cy="6.77419355" rx="6.81355932" ry="6.77419355"></ellipse>
                </g>
            </g>
            <path d="M9.24802674,115.266273 C9.14113123,114.869091 9.08474576,114.45613 9.08474576,114.032258 C9.08474576,110.914522 12.1352802,108.387097 15.8983051,108.387097 C19.66133,108.387097 22.7118644,110.914522 22.7118644,114.032258 C22.7118644,115.02912 22.3999992,115.965632 21.8526946,116.778475 C23.7553892,118.222452 24.9830508,120.500945 24.9830508,123.064516 C24.9830508,127.429347 21.424094,130.967742 17.0338983,130.967742 C15.3449894,130.967742 13.779099,130.44408 12.4915254,129.551157 C11.2039518,130.44408 9.63806144,130.967742 7.94915254,130.967742 C3.55895682,130.967742 0,127.429347 0,123.064516 C0,118.699685 3.55895682,115.16129 7.94915254,115.16129 C8.39147862,115.16129 8.82536662,115.197209 9.24802674,115.266273 Z" id="tail" fill="#555555"></path>
            <path d="M165.386246,50.5545966 C170.875926,55.0284113 164.879399,75.7566062 160.967892,84.3366223 C152.06086,103.874482 137.306084,111.177312 135.367536,110.816789 C131.182749,110.038519 129.286934,102.863122 133.143476,90.5334235 C135.714504,82.3136244 142.046737,71.2002175 152.140176,57.1932027" id="Path-3" stroke="#FFFFFF" stroke-width="2.25" stroke-linecap="round"></path>
        </g>
        <text id="One-Two" font-family="Rubik-Medium, Rubik" font-size="95" font-weight="400" letter-spacing="9.79623604" fill="#555555">
            <tspan x="161.743174" y="428">One Two</tspan>
        </text>
    </g>
</svg>