<?xml version="1.0" encoding="UTF-8"?>
<svg width="575px" height="381px" viewBox="0 0 575 381" version="1.1" xmlns="http://www.w3.org/2000/svg" xmlns:xlink="http://www.w3.org/1999/xlink">
    <!-- Generator: Sketch 52.3 (67297) - http://www.bohemiancoding.com/sketch -->
    <title>Artboard</title>
    <desc>Created with Sketch.</desc>
    <g id="Artboard" stroke="none" stroke-width="1" fill="none" fill-rule="evenodd">
        <g id="Sheep" transform="translate(4.000000, 23.000000)">
            <g id="sheep" transform="translate(61.224355, 207.655733) rotate(-81.000000) translate(-61.224355, -207.655733) translate(-20.775645, 158.655733)">
                <rect id="Rectangle-Copy-3" fill="#555555" transform="translate(9.625462, 68.783644) scale(-1, 1) rotate(-55.000000) translate(-9.625462, -68.783644) " x="7.12546153" y="58.7836445" width="5" height="20" rx="2"></rect>
                <rect id="Rectangle" fill="#555555" transform="translate(105.921751, 79.051180) rotate(-39.000000) translate(-105.921751, -79.051180) " x="103.421751" y="65.0511804" width="5" height="28" rx="2"></rect>
                <path d="M24.1053456,21.5132882 L23.9813503,22.6753757 L22.8524127,22.3731806 C21.9302858,22.1263449 20.9739713,22 20,22 C13.9248678,22 9,26.9248678 9,33 C9,38.370708 12.8760893,42.9317477 18.1081138,43.8380892 L19.6115946,44.0985366 L18.7727626,45.3731536 C16.3243568,49.0935406 15,53.4471133 15,58 C15,70.7025492 25.2974508,81 38,81 C43.6070713,81 48.8999999,78.9877609 53.0513229,75.391815 L53.7317762,74.8023949 L54.3892053,75.4173905 C57.5178403,78.3440892 61.6279054,80 66,80 C68.6271,80 71.1672183,79.4043091 73.4730647,78.2738733 L74.2607391,77.8877178 L74.7461869,78.6183938 C77.7860831,83.1939201 82.9039286,86 88.5,86 C97.6126984,86 105,78.6126984 105,69.5 C105,69.34065 104.997744,69.1815796 104.99324,69.0228185 L104.964718,68.0173346 L105.970352,67.9947155 C117.092694,67.7445479 126,58.6466661 126,47.5 C126,40.3013602 122.260558,33.7479377 116.24493,30.0380439 L115.455045,29.5509144 L115.881918,28.7269043 C117.267054,26.0531227 118,23.080285 118,20 C118,9.50658975 109.49341,1 99,1 C91.3671679,1 84.567736,5.54209354 81.5719372,12.4200634 L81.0739205,13.5634459 L80.0660983,12.8288449 C77.0393557,10.622654 73.7890641,9.44584277 70.5,9.44584277 C66.7292971,9.44584277 63.0090649,10.9948421 59.6359951,13.850201 L58.7591735,14.5924449 L58.1448711,13.6216851 C54.7744002,8.29545227 48.9202909,5 42.5,5 C33.0220357,5 25.103049,12.1627779 24.1053456,21.5132882 Z" id="sheepbody" stroke="#555555" stroke-width="2" fill="#FFFFFF"></path>
                <rect id="Rectangle-Copy" fill="#555555" transform="translate(103.236069, 88.344761) rotate(-39.000000) translate(-103.236069, -88.344761) " x="100.736069" y="78.3447606" width="5" height="20" rx="2"></rect>
                <rect id="Rectangle-Copy-2" fill="#555555" transform="translate(15.236069, 79.344761) scale(-1, 1) rotate(-39.000000) translate(-15.236069, -79.344761) " x="12.7360688" y="69.3447606" width="5" height="20" rx="2"></rect>
                <g id="sheephead" transform="translate(89.000000, 5.000000)">
                    <ellipse id="Oval" fill="#555555" transform="translate(48.042883, 29.101995) rotate(-27.000000) translate(-48.042883, -29.101995) " cx="48.0428829" cy="29.1019951" rx="17" ry="24"></ellipse>
                    <path d="M44.003631,7.82800827 C43.6898266,7.93937919 43.3519927,8 43,8 C42.6493646,8 42.3127789,7.93984578 42,7.82929429 C41.6872211,7.93984578 41.3506354,8 41,8 C40.5083476,8 40.0443185,7.88173104 39.6348106,7.67209119 C39.0930873,8.8477488 37.9977606,9.71573703 36.6829602,9.94192611 C37.5007525,11.0101286 38,12.435101 38,14 C38,17.3137085 35.7614237,20 33,20 C32.6569056,20 32.3218823,19.9585319 31.998221,19.8795445 C31.9994042,19.9195516 32,19.9597062 32,20 C32,22.209139 30.209139,24 28,24 C25.790861,24 24,22.209139 24,20 C24,17.790861 25.790861,16 28,16 C28.0966777,16 28.1925544,16.0034298 28.2875149,16.0101744 C28.243621,15.8620052 28.2044423,15.7111544 28.1701955,15.557882 C26.8813616,14.8937007 26,13.5497769 26,12 C26,11.2714257 26.1947886,10.5883467 26.5351288,10 C26.1947886,9.41165327 26,8.72857429 26,8 C26,5.790861 27.790861,4 30,4 C30.8233176,4 31.5885381,4.24874282 32.2246104,4.67517721 C32.7713155,3.11714339 34.2551963,2 36,2 C36.0567715,2 36.1132667,2.0011827 36.1694624,2.00352481 C36.5803019,0.836491575 37.6924644,0 39,0 C40.3537679,0 41.4981023,0.896691292 41.8714647,2.1285353 C41.9147314,2.1416491 41.9575846,2.15571401 42,2.17070571 C42.3127789,2.06015422 42.6493646,2 43,2 C44.5054233,2 45.7518614,3.10884742 45.9671266,4.55435462 C46.5628413,4.20213427 47.2578152,4 48,4 C50.209139,4 52,5.790861 52,8 C52,10.209139 50.209139,12 48,12 C45.790861,12 44,10.209139 44,8 C44,7.94237672 44.0012185,7.88503802 44.003631,7.82800827 Z" id="headtuft" fill="#555555"></path>
                    <ellipse id="Oval" fill="#555555" transform="translate(23.264890, 35.635050) rotate(27.000000) translate(-23.264890, -35.635050) " cx="23.2648901" cy="35.6350504" rx="5" ry="15"></ellipse>
                    <ellipse id="Oval-Copy" fill="#555555" transform="translate(15.711772, 18.009413) rotate(78.000000) translate(-15.711772, -18.009413) " cx="15.7117725" cy="18.0094134" rx="5" ry="15"></ellipse>
                    <g id="eyes" transform="translate(42.000000, 18.000000)">
                        <circle id="Oval" fill="#FFFFFF" cx="4" cy="8" r="4"></circle>
                        <circle id="Oval-Copy-11" fill="#555555" cx="5" cy="7" r="3"></circle>
                        <circle id="Oval-Copy-10" fill="#FFFFFF" cx="14" cy="4" r="4"></circle>
                        <circle id="Oval-Copy-12" fill="#555555" cx="15" cy="3" r="3"></circle>
                    </g>
                </g>
            </g>
            <g id="sheep-copy" transform="translate(186.381533, 83.476659) rotate(-30.000000) translate(-186.381533, -83.476659) translate(104.381533, 34.476659)">
                <rect id="Rectangle-Copy-3" fill="#555555" transform="translate(9.625462, 68.783644) scale(-1, 1) rotate(-55.000000) translate(-9.625462, -68.783644) " x="7.12546153" y="58.7836445" width="5" height="20" rx="2"></rect>
                <rect id="Rectangle" fill="#555555" transform="translate(105.921751, 79.051180) rotate(-39.000000) translate(-105.921751, -79.051180) " x="103.421751" y="65.0511804" width="5" height="28" rx="2"></rect>
                <path d="M24.1053456,21.5132882 L23.9813503,22.6753757 L22.8524127,22.3731806 C21.9302858,22.1263449 20.9739713,22 20,22 C13.9248678,22 9,26.9248678 9,33 C9,38.370708 12.8760893,42.9317477 18.1081138,43.8380892 L19.6115946,44.0985366 L18.7727626,45.3731536 C16.3243568,49.0935406 15,53.4471133 15,58 C15,70.7025492 25.2974508,81 38,81 C43.6070713,81 48.8999999,78.9877609 53.0513229,75.391815 L53.7317762,74.8023949 L54.3892053,75.4173905 C57.5178403,78.3440892 61.6279054,80 66,80 C68.6271,80 71.1672183,79.4043091 73.4730647,78.2738733 L74.2607391,77.8877178 L74.7461869,78.6183938 C77.7860831,83.1939201 82.9039286,86 88.5,86 C97.6126984,86 105,78.6126984 105,69.5 C105,69.34065 104.997744,69.1815796 104.99324,69.0228185 L104.964718,68.0173346 L105.970352,67.9947155 C117.092694,67.7445479 126,58.6466661 126,47.5 C126,40.3013602 122.260558,33.7479377 116.24493,30.0380439 L115.455045,29.5509144 L115.881918,28.7269043 C117.267054,26.0531227 118,23.080285 118,20 C118,9.50658975 109.49341,1 99,1 C91.3671679,1 84.567736,5.54209354 81.5719372,12.4200634 L81.0739205,13.5634459 L80.0660983,12.8288449 C77.0393557,10.622654 73.7890641,9.44584277 70.5,9.44584277 C66.7292971,9.44584277 63.0090649,10.9948421 59.6359951,13.850201 L58.7591735,14.5924449 L58.1448711,13.6216851 C54.7744002,8.29545227 48.9202909,5 42.5,5 C33.0220357,5 25.103049,12.1627779 24.1053456,21.5132882 Z" id="sheepbody" stroke="#555555" stroke-width="2" fill="#FFFFFF"></path>
                <rect id="Rectangle-Copy" fill="#555555" transform="translate(103.236069, 88.344761) rotate(-39.000000) translate(-103.236069, -88.344761) " x="100.736069" y="78.3447606" width="5" height="20" rx="2"></rect>
                <rect id="Rectangle-Copy-2" fill="#555555" transform="translate(15.236069, 79.344761) scale(-1, 1) rotate(-39.000000) translate(-15.236069, -79.344761) " x="12.7360688" y="69.3447606" width="5" height="20" rx="2"></rect>
                <g id="sheephead" transform="translate(89.000000, 5.000000)">
                    <ellipse id="Oval" fill="#555555" transform="translate(48.042883, 29.101995) rotate(-27.000000) translate(-48.042883, -29.101995) " cx="48.0428829" cy="29.1019951" rx="17" ry="24"></ellipse>
                    <path d="M44.003631,7.82800827 C43.6898266,7.93937919 43.3519927,8 43,8 C42.6493646,8 42.3127789,7.93984578 42,7.82929429 C41.6872211,7.93984578 41.3506354,8 41,8 C40.5083476,8 40.0443185,7.88173104 39.6348106,7.67209119 C39.0930873,8.8477488 37.9977606,9.71573703 36.6829602,9.94192611 C37.5007525,11.0101286 38,12.435101 38,14 C38,17.3137085 35.7614237,20 33,20 C32.6569056,20 32.3218823,19.9585319 31.998221,19.8795445 C31.9994042,19.9195516 32,19.9597062 32,20 C32,22.209139 30.209139,24 28,24 C25.790861,24 24,22.209139 24,20 C24,17.790861 25.790861,16 28,16 C28.0966777,16 28.1925544,16.0034298 28.2875149,16.0101744 C28.243621,15.8620052 28.2044423,15.7111544 28.1701955,15.557882 C26.8813616,14.8937007 26,13.5497769 26,12 C26,11.2714257 26.1947886,10.5883467 26.5351288,10 C26.1947886,9.41165327 26,8.72857429 26,8 C26,5.790861 27.790861,4 30,4 C30.8233176,4 31.5885381,4.24874282 32.2246104,4.67517721 C32.7713155,3.11714339 34.2551963,2 36,2 C36.0567715,2 36.1132667,2.0011827 36.1694624,2.00352481 C36.5803019,0.836491575 37.6924644,0 39,0 C40.3537679,0 41.4981023,0.896691292 41.8714647,2.1285353 C41.9147314,2.1416491 41.9575846,2.15571401 42,2.17070571 C42.3127789,2.06015422 42.6493646,2 43,2 C44.5054233,2 45.7518614,3.10884742 45.9671266,4.55435462 C46.5628413,4.20213427 47.2578152,4 48,4 C50.209139,4 52,5.790861 52,8 C52,10.209139 50.209139,12 48,12 C45.790861,12 44,10.209139 44,8 C44,7.94237672 44.0012185,7.88503802 44.003631,7.82800827 Z" id="headtuft" fill="#555555"></path>
                    <ellipse id="Oval" fill="#555555" transform="translate(23.264890, 35.635050) rotate(27.000000) translate(-23.264890, -35.635050) " cx="23.2648901" cy="35.6350504" rx="5" ry="15"></ellipse>
                    <ellipse id="Oval-Copy" fill="#555555" transform="translate(15.711772, 18.009413) rotate(78.000000) translate(-15.711772, -18.009413) " cx="15.7117725" cy="18.0094134" rx="5" ry="15"></ellipse>
                    <g id="eyes" transform="translate(42.000000, 18.000000)">
                        <circle id="Oval" fill="#FFFFFF" cx="4" cy="8" r="4"></circle>
                        <circle id="Oval-Copy-11" fill="#555555" cx="5" cy="7" r="3"></circle>
                        <circle id="Oval-Copy-10" fill="#FFFFFF" cx="14" cy="4" r="4"></circle>
                        <circle id="Oval-Copy-12" fill="#555555" cx="15" cy="3" r="3"></circle>
                    </g>
                </g>
            </g>
            <g id="sheep-copy-2" transform="translate(387.485363, 94.026999) rotate(19.000000) translate(-387.485363, -94.026999) translate(305.485363, 45.026999)">
                <rect id="Rectangle-Copy-3" fill="#555555" transform="translate(9.625462, 68.783644) scale(-1, 1) rotate(-55.000000) translate(-9.625462, -68.783644) " x="7.12546153" y="58.7836445" width="5" height="20" rx="2"></rect>
                <rect id="Rectangle" fill="#555555" transform="translate(105.921751, 79.051180) rotate(-39.000000) translate(-105.921751, -79.051180) " x="103.421751" y="65.0511804" width="5" height="28" rx="2"></rect>
                <path d="M24.1053456,21.5132882 L23.9813503,22.6753757 L22.8524127,22.3731806 C21.9302858,22.1263449 20.9739713,22 20,22 C13.9248678,22 9,26.9248678 9,33 C9,38.370708 12.8760893,42.9317477 18.1081138,43.8380892 L19.6115946,44.0985366 L18.7727626,45.3731536 C16.3243568,49.0935406 15,53.4471133 15,58 C15,70.7025492 25.2974508,81 38,81 C43.6070713,81 48.8999999,78.9877609 53.0513229,75.391815 L53.7317762,74.8023949 L54.3892053,75.4173905 C57.5178403,78.3440892 61.6279054,80 66,80 C68.6271,80 71.1672183,79.4043091 73.4730647,78.2738733 L74.2607391,77.8877178 L74.7461869,78.6183938 C77.7860831,83.1939201 82.9039286,86 88.5,86 C97.6126984,86 105,78.6126984 105,69.5 C105,69.34065 104.997744,69.1815796 104.99324,69.0228185 L104.964718,68.0173346 L105.970352,67.9947155 C117.092694,67.7445479 126,58.6466661 126,47.5 C126,40.3013602 122.260558,33.7479377 116.24493,30.0380439 L115.455045,29.5509144 L115.881918,28.7269043 C117.267054,26.0531227 118,23.080285 118,20 C118,9.50658975 109.49341,1 99,1 C91.3671679,1 84.567736,5.54209354 81.5719372,12.4200634 L81.0739205,13.5634459 L80.0660983,12.8288449 C77.0393557,10.622654 73.7890641,9.44584277 70.5,9.44584277 C66.7292971,9.44584277 63.0090649,10.9948421 59.6359951,13.850201 L58.7591735,14.5924449 L58.1448711,13.6216851 C54.7744002,8.29545227 48.9202909,5 42.5,5 C33.0220357,5 25.103049,12.1627779 24.1053456,21.5132882 Z" id="sheepbody" stroke="#555555" stroke-width="2" fill="#FFFFFF"></path>
                <rect id="Rectangle-Copy" fill="#555555" transform="translate(103.236069, 88.344761) rotate(-39.000000) translate(-103.236069, -88.344761) " x="100.736069" y="78.3447606" width="5" height="20" rx="2"></rect>
                <rect id="Rectangle-Copy-2" fill="#555555" transform="translate(15.236069, 79.344761) scale(-1, 1) rotate(-39.000000) translate(-15.236069, -79.344761) " x="12.7360688" y="69.3447606" width="5" height="20" rx="2"></rect>
                <g id="sheephead" transform="translate(89.000000, 5.000000)">
                    <ellipse id="Oval" fill="#555555" transform="translate(48.042883, 29.101995) rotate(-27.000000) translate(-48.042883, -29.101995) " cx="48.0428829" cy="29.1019951" rx="17" ry="24"></ellipse>
                    <path d="M44.003631,7.82800827 C43.6898266,7.93937919 43.3519927,8 43,8 C42.6493646,8 42.3127789,7.93984578 42,7.82929429 C41.6872211,7.93984578 41.3506354,8 41,8 C40.5083476,8 40.0443185,7.88173104 39.6348106,7.67209119 C39.0930873,8.8477488 37.9977606,9.71573703 36.6829602,9.94192611 C37.5007525,11.0101286 38,12.435101 38,14 C38,17.3137085 35.7614237,20 33,20 C32.6569056,20 32.3218823,19.9585319 31.998221,19.8795445 C31.9994042,19.9195516 32,19.9597062 32,20 C32,22.209139 30.209139,24 28,24 C25.790861,24 24,22.209139 24,20 C24,17.790861 25.790861,16 28,16 C28.0966777,16 28.1925544,16.0034298 28.2875149,16.0101744 C28.243621,15.8620052 28.2044423,15.7111544 28.1701955,15.557882 C26.8813616,14.8937007 26,13.5497769 26,12 C26,11.2714257 26.1947886,10.5883467 26.5351288,10 C26.1947886,9.41165327 26,8.72857429 26,8 C26,5.790861 27.790861,4 30,4 C30.8233176,4 31.5885381,4.24874282 32.2246104,4.67517721 C32.7713155,3.11714339 34.2551963,2 36,2 C36.0567715,2 36.1132667,2.0011827 36.1694624,2.00352481 C36.5803019,0.836491575 37.6924644,0 39,0 C40.3537679,0 41.4981023,0.896691292 41.8714647,2.1285353 C41.9147314,2.1416491 41.9575846,2.15571401 42,2.17070571 C42.3127789,2.06015422 42.6493646,2 43,2 C44.5054233,2 45.7518614,3.10884742 45.9671266,4.55435462 C46.5628413,4.20213427 47.2578152,4 48,4 C50.209139,4 52,5.790861 52,8 C52,10.209139 50.209139,12 48,12 C45.790861,12 44,10.209139 44,8 C44,7.94237672 44.0012185,7.88503802 44.003631,7.82800827 Z" id="headtuft" fill="#555555"></path>
                    <ellipse id="Oval" fill="#555555" transform="translate(23.264890, 35.635050) rotate(27.000000) translate(-23.264890, -35.635050) " cx="23.2648901" cy="35.6350504" rx="5" ry="15"></ellipse>
                    <ellipse id="Oval-Copy" fill="#555555" transform="translate(15.711772, 18.009413) rotate(78.000000) translate(-15.711772, -18.009413) " cx="15.7117725" cy="18.0094134" rx="5" ry="15"></ellipse>
                    <g id="eyes" transform="translate(42.000000, 18.000000)">
                        <circle id="Oval" fill="#FFFFFF" cx="4" cy="8" r="4"></circle>
                        <circle id="Oval-Copy-11" fill="#555555" cx="5" cy="7" r="3"></circle>
                        <circle id="Oval-Copy-10" fill="#FFFFFF" cx="14" cy="4" r="4"></circle>
                        <circle id="Oval-Copy-12" fill="#555555" cx="15" cy="3" r="3"></circle>
                    </g>
                </g>
            </g>
            <g id="sheep-copy-3" transform="translate(493.116132, 230.840823) rotate(66.000000) translate(-493.116132, -230.840823) translate(411.116132, 181.840823)">
                <rect id="Rectangle-Copy-3" fill="#555555" transform="translate(9.625462, 68.783644) scale(-1, 1) rotate(-55.000000) translate(-9.625462, -68.783644) " x="7.12546153" y="58.7836445" width="5" height="20" rx="2"></rect>
                <rect id="Rectangle" fill="#555555" transform="translate(105.921751, 79.051180) rotate(-39.000000) translate(-105.921751, -79.051180) " x="103.421751" y="65.0511804" width="5" height="28" rx="2"></rect>
                <path d="M24.1053456,21.5132882 L23.9813503,22.6753757 L22.8524127,22.3731806 C21.9302858,22.1263449 20.9739713,22 20,22 C13.9248678,22 9,26.9248678 9,33 C9,38.370708 12.8760893,42.9317477 18.1081138,43.8380892 L19.6115946,44.0985366 L18.7727626,45.3731536 C16.3243568,49.0935406 15,53.4471133 15,58 C15,70.7025492 25.2974508,81 38,81 C43.6070713,81 48.8999999,78.9877609 53.0513229,75.391815 L53.7317762,74.8023949 L54.3892053,75.4173905 C57.5178403,78.3440892 61.6279054,80 66,80 C68.6271,80 71.1672183,79.4043091 73.4730647,78.2738733 L74.2607391,77.8877178 L74.7461869,78.6183938 C77.7860831,83.1939201 82.9039286,86 88.5,86 C97.6126984,86 105,78.6126984 105,69.5 C105,69.34065 104.997744,69.1815796 104.99324,69.0228185 L104.964718,68.0173346 L105.970352,67.9947155 C117.092694,67.7445479 126,58.6466661 126,47.5 C126,40.3013602 122.260558,33.7479377 116.24493,30.0380439 L115.455045,29.5509144 L115.881918,28.7269043 C117.267054,26.0531227 118,23.080285 118,20 C118,9.50658975 109.49341,1 99,1 C91.3671679,1 84.567736,5.54209354 81.5719372,12.4200634 L81.0739205,13.5634459 L80.0660983,12.8288449 C77.0393557,10.622654 73.7890641,9.44584277 70.5,9.44584277 C66.7292971,9.44584277 63.0090649,10.9948421 59.6359951,13.850201 L58.7591735,14.5924449 L58.1448711,13.6216851 C54.7744002,8.29545227 48.9202909,5 42.5,5 C33.0220357,5 25.103049,12.1627779 24.1053456,21.5132882 Z" id="sheepbody" stroke="#555555" stroke-width="2" fill="#FFFFFF"></path>
                <rect id="Rectangle-Copy" fill="#555555" transform="translate(103.236069, 88.344761) rotate(-39.000000) translate(-103.236069, -88.344761) " x="100.736069" y="78.3447606" width="5" height="20" rx="2"></rect>
                <rect id="Rectangle-Copy-2" fill="#555555" transform="translate(15.236069, 79.344761) scale(-1, 1) rotate(-39.000000) translate(-15.236069, -79.344761) " x="12.7360688" y="69.3447606" width="5" height="20" rx="2"></rect>
                <g id="sheephead" transform="translate(89.000000, 5.000000)">
                    <ellipse id="Oval" fill="#555555" transform="translate(48.042883, 29.101995) rotate(-27.000000) translate(-48.042883, -29.101995) " cx="48.0428829" cy="29.1019951" rx="17" ry="24"></ellipse>
                    <path d="M44.003631,7.82800827 C43.6898266,7.93937919 43.3519927,8 43,8 C42.6493646,8 42.3127789,7.93984578 42,7.82929429 C41.6872211,7.93984578 41.3506354,8 41,8 C40.5083476,8 40.0443185,7.88173104 39.6348106,7.67209119 C39.0930873,8.8477488 37.9977606,9.71573703 36.6829602,9.94192611 C37.5007525,11.0101286 38,12.435101 38,14 C38,17.3137085 35.7614237,20 33,20 C32.6569056,20 32.3218823,19.9585319 31.998221,19.8795445 C31.9994042,19.9195516 32,19.9597062 32,20 C32,22.209139 30.209139,24 28,24 C25.790861,24 24,22.209139 24,20 C24,17.790861 25.790861,16 28,16 C28.0966777,16 28.1925544,16.0034298 28.2875149,16.0101744 C28.243621,15.8620052 28.2044423,15.7111544 28.1701955,15.557882 C26.8813616,14.8937007 26,13.5497769 26,12 C26,11.2714257 26.1947886,10.5883467 26.5351288,10 C26.1947886,9.41165327 26,8.72857429 26,8 C26,5.790861 27.790861,4 30,4 C30.8233176,4 31.5885381,4.24874282 32.2246104,4.67517721 C32.7713155,3.11714339 34.2551963,2 36,2 C36.0567715,2 36.1132667,2.0011827 36.1694624,2.00352481 C36.5803019,0.836491575 37.6924644,0 39,0 C40.3537679,0 41.4981023,0.896691292 41.8714647,2.1285353 C41.9147314,2.1416491 41.9575846,2.15571401 42,2.17070571 C42.3127789,2.06015422 42.6493646,2 43,2 C44.5054233,2 45.7518614,3.10884742 45.9671266,4.55435462 C46.5628413,4.20213427 47.2578152,4 48,4 C50.209139,4 52,5.790861 52,8 C52,10.209139 50.209139,12 48,12 C45.790861,12 44,10.209139 44,8 C44,7.94237672 44.0012185,7.88503802 44.003631,7.82800827 Z" id="headtuft" fill="#555555"></path>
                    <ellipse id="Oval" fill="#555555" transform="translate(23.264890, 35.635050) rotate(27.000000) translate(-23.264890, -35.635050) " cx="23.2648901" cy="35.6350504" rx="5" ry="15"></ellipse>
                    <ellipse id="Oval-Copy" fill="#555555" transform="translate(15.711772, 18.009413) rotate(78.000000) translate(-15.711772, -18.009413) " cx="15.7117725" cy="18.0094134" rx="5" ry="15"></ellipse>
                    <g id="eyes" transform="translate(42.000000, 18.000000)">
                        <circle id="Oval" fill="#FFFFFF" cx="4" cy="8" r="4"></circle>
                        <circle id="Oval-Copy-11" fill="#555555" cx="5" cy="7" r="3"></circle>
                        <circle id="Oval-Copy-10" fill="#FFFFFF" cx="14" cy="4" r="4"></circle>
                        <circle id="Oval-Copy-12" fill="#555555" cx="15" cy="3" r="3"></circle>
                    </g>
                </g>
            </g>
        </g>
        <text id="One-Two" font-family="Rubik-Regular, Rubik" font-size="68" font-weight="normal" letter-spacing="7.01204681" fill="#555555">
            <tspan x="129.677836" y="292">One Two</tspan>
        </text>
    </g>
</svg>